{
  "accessors": [
    {
      "bufferView": 2,
      "componentType": 5126,
      "count": 102,
      "max": [
        0.45694318413734436,
        0.4954061210155487,
        0.8059007525444031
      ],
      "min": [
        -0.4833846986293793,
        -0.41300147771835327,
        -1.0417759418487549
      ],
      "type": "VEC3"
    },
    {
      "bufferView": 2,
      "byteOffset": 1224,
      "componentType": 5126,
      "count": 102,
      "max": [
        0.9483152031898499,
        0.8734166026115417,
        0.8568563461303711
      ],
      "min": [
        -0.9652535319328308,
        -0.9696671962738037,
        -0.8358348608016968
      ],
      "type": "VEC3"
    },
    {
      "bufferView": 3,
      "componentType": 5126,
      "count": 102,
      "max": [
        0.9429940581321716,
        0.9872367978096008,
        0.9990978240966797,
        1.0
      ],
      "min": [
        -0.9996963739395142,
        -0.9892942905426025,
        -0.9982965588569641,
        1.0
      ],
      "type": "VEC4"
    },
    {
      "bufferView": 1,
      "componentType": 5126,
      "count": 102,
      "max": [
        0.9765874147415161,
        0.9990000128746033
      ],
      "min": [
        0.001000010408461094,
        0.0009999275207519531
      ],
      "type": "VEC2"
    },
    {
      "bufferView": 1,
      "byteOffset": 816,
      "componentType": 5126,
      "count": 102,
      "max": [
        0.9765874147415161,
        0.9990000128746033
      ],
      "min": [
        0.001000010408461094,
        0.0009999275207519531
      ],
      "type": "VEC2"
    },
    {
      "bufferView": 1,
      "byteOffset": 1632,
      "componentType": 5126,
      "count": 102,
      "max": [
        0.9765874147415161,
        0.9990000128746033
      ],
      "min": [
        0.001000010408461094,
        0.0009999275207519531
      ],
      "type": "VEC2"
    },
    {
      "bufferView": 1,
      "byteOffset": 2448,
      "componentType": 5126,
      "count": 102,
      "max": [
        0.9765874147415161,
        0.9990000128746033
      ],
      "min": [
        0.001000010408461094,
        0.0009999275207519531
      ],
      "type": "VEC2"
    },
    {
      "bufferView": 1,
      "byteOffset": 3264,
      "componentType": 5126,
      "count": 102,
      "max": [
        0.9765874147415161,
        0.9990000128746033
      ],
      "min": [
        0.001000010408461094,
        0.0009999275207519531
      ],
      "type": "VEC2"
    },
    {
      "bufferView": 1,
      "byteOffset": 4080,
      "componentType": 5126,
      "count": 102,
      "max": [
        0.9765874147415161,
        0.9990000128746033
      ],
      "min": [
        0.001000010408461094,
        0.0009999275207519531
      ],
      "type": "VEC2"
    },
    {
      "bufferView": 0,
      "componentType": 5125,
      "count": 180,
      "type": "SCALAR"
    }
  ],
  "asset": {
    "extras": {
      "author": "TheTallOne (https://sketchfab.com/TheTallOne)",
      "license": "CC-BY-4.0 (http://creativecommons.org/licenses/by/4.0/)",
      "source": "https://sketchfab.com/3d-models/enchanted-crystal-02-718da0773ed24a23ac29758570269cb6",
      "title": "Enchanted Crystal 02"
    },
    "generator": "Sketchfab-17.2.0",
    "version": "2.0"
  },
  "bufferViews": [
    {
      "buffer": 0,
      "byteLength": 720,
      "name": "floatBufferViews",
      "target": 34963
    },
    {
      "buffer": 0,
      "byteLength": 4896,
      "byteOffset": 720,
      "byteStride": 8,
      "name": "floatBufferViews",
      "target": 34962
    },
    {
      "buffer": 0,
      "byteLength": 2448,
      "byteOffset": 5616,
      "byteStride": 12,
      "name": "floatBufferViews",
      "target": 34962
    },
    {
      "buffer": 0,
      "byteLength": 1632,
      "byteOffset": 8064,
      "byteStride": 16,
      "name": "floatBufferViews",
      "target": 34962
    }
  ],
  "buffers": [
    {
      "byteLength": 9696,
      "uri": "scene.bin"
    }
  ],
  "extensionsUsed": [
    "KHR_materials_emissive_strength"
  ],
  "images": [
    {
      "uri": "textures/Crystal_baseColor.png"
    },
    {
      "uri": "textures/Crystal_metallicRoughness.png"
    },
    {
      "uri": "textures/Crystal_emissive.png"
    },
    {
      "uri": "textures/Crystal_normal.png"
    }
  ],
  "materials": [
    {
      "emissiveFactor": [
        1.0,
        1.0,
        1.0
      ],
      "emissiveTexture": {
        "index": 2
      },
      "extensions": {
        "KHR_materials_emissive_strength": {
          "emissiveStrength": 2.5
        }
      },
      "name": "Crystal",
      "normalTexture": {
        "index": 3
      },
      "occlusionTexture": {
        "index": 1
      },
      "pbrMetallicRoughness": {
        "baseColorTexture": {
          "index": 0
        },
        "metallicRoughnessTexture": {
          "index": 1
        }
      }
    }
  ],
  "meshes": [
    {
      "name": "Object_0",
      "primitives": [
        {
          "attributes": {
            "NORMAL": 1,
            "POSITION": 0,
            "TANGENT": 2,
            "TEXCOORD_0": 3,
            "TEXCOORD_1": 4,
            "TEXCOORD_2": 5,
            "TEXCOORD_3": 6,
            "TEXCOORD_4": 7,
            "TEXCOORD_5": 8
          },
          "indices": 9,
          "material": 0,
          "mode": 4
        }
      ]
    }
  ],
  "nodes": [
    {
      "children": [
        1
      ],
      "matrix": [
        1.0,
        0.0,
        0.0,
        0.0,
        0.0,
        2.220446049250313e-16,
        -1.0,
        0.0,
        0.0,
        1.0,
        2.220446049250313e-16,
        0.0,
        0.0,
        0.0,
        0.0,
        1.0
      ],
      "name": "Sketchfab_model"
    },
    {
      "children": [
        2
      ],
      "name": "root"
    },
    {
      "children": [
        3
      ],
      "matrix": [
        1.0,
        0.0,
        0.0,
        0.0,
        0.0,
        2.220446049250313e-16,
        1.0,
        0.0,
        0.0,
        -1.0,
        2.220446049250313e-16,
        0.0,
        0.0,
        0.0,
        0.0,
        1.0
      ],
      "name": "GLTF_SceneRootNode"
    },
    {
      "children": [
        4
      ],
      "matrix": [
        0.009999999776482582,
        0.0,
        0.0,
        0.0,
        0.0,
        0.009999999776482582,
        0.0,
        0.0,
        0.0,
        0.0,
        0.009999999776482582,
        0.0,
        0.0,
        0.0,
        0.0,
        1.0
      ],
      "name": "RootNode_0"
    },
    {
      "children": [
        5
      ],
      "matrix": [
        -1.0,
        1.2246469194995e-16,
        0.0,
        0.0,
        0.0,
        0.0,
        1.0,
        0.0,
        1.2246469194995e-16,
        1.0,
        0.0,
        0.0,
        0.0,
        0.0,
        0.0,
        1.0
      ],
      "name": "02_low_01_1"
    },
    {
      "children": [
        6
      ],
      "name": "02_low_01_2"
    },
    {
      "mesh": 0,
      "name": "Object_6"
    }
  ],
  "samplers": [
    {
      "magFilter": 9729,
      "minFilter": 9987,
      "wrapS": 10497,
      "wrapT": 10497
    }
  ],
  "scene": 0,
  "scenes": [
    {
      "name": "Sketchfab_Scene",
      "nodes": [
        0
      ]
    }
  ],
  "textures": [
    {
      "sampler": 0,
      "source": 0
    },
    {
      "sampler": 0,
      "source": 1
    },
    {
      "sampler": 0,
      "source": 2
    },
    {
      "sampler": 0,
      "source": 3
    }
  ]
}
